<svg width="214" height="39" viewBox="0 0 214 39" fill="none" xmlns="http://www.w3.org/2000/svg">
<path d="M11.0567 27.723L4.56448 11.1504H0L8.17958 30.8647C8.67293 32.0312 9.79229 32.7889 11.0277 32.7889C12.2632 32.7889 13.3825 32.0354 13.8759 30.8732L22.0928 11.1546H17.491L11.0567 27.7273V27.723Z" fill="#DEEDFF"/>
<path d="M38.4727 11.6058C37.1543 11.0396 35.5582 10.7544 33.6843 10.7544C31.968 10.7544 30.4258 10.9928 29.0535 11.4738C27.6813 11.9549 26.5122 12.6488 25.5421 13.5555C24.572 14.4623 23.8547 15.5648 23.3863 16.859L27.2874 18.1191C27.6398 17.3315 28.1083 16.6759 28.6928 16.1481C29.2774 15.6202 29.9863 15.2158 30.8196 14.9263C31.6529 14.6411 32.6023 14.4963 33.6678 14.4963C34.6545 14.4963 35.496 14.6113 36.1925 14.8454C36.889 15.0795 37.4114 15.4073 37.7638 15.8245C38.1162 16.246 38.2903 16.7355 38.2903 17.2975C38.2903 18.0041 38.0457 18.5448 37.5606 18.9194C37.0714 19.294 36.4371 19.5494 35.6494 19.6899C34.8617 19.8304 33.7424 19.9666 32.2872 20.0986C30.3885 20.2476 28.8089 20.4732 27.5486 20.7797C26.2883 21.0862 25.2104 21.6779 24.3232 22.5506C23.4319 23.4233 22.9883 24.7047 22.9883 26.3862C22.9883 27.7229 23.2826 28.8723 23.8672 29.8387C24.4517 30.805 25.3099 31.5458 26.4417 32.0523C27.5735 32.5589 28.9292 32.8144 30.517 32.8144C31.6861 32.8144 32.7681 32.6739 33.7631 32.3929C34.7581 32.1119 35.6453 31.6905 36.4247 31.1328C37.2041 30.5709 37.8425 29.8898 38.3359 29.0895V32.4951H42.4899V17.7359C42.4899 16.3098 42.15 15.071 41.4742 14.0195C40.7985 12.9723 39.7993 12.1635 38.481 11.5973L38.4727 11.6058ZM37.3824 26.6331C36.7771 27.4079 35.9479 28.0039 34.8866 28.4254C33.8253 28.8468 32.623 29.0554 31.2715 29.0554C29.92 29.0554 28.9623 28.834 28.2493 28.3956C27.5362 27.9571 27.1755 27.2547 27.1755 26.2926C27.1755 25.5306 27.3828 24.9516 27.7974 24.5514C28.2119 24.1513 28.8048 23.8661 29.5717 23.6915C30.3387 23.517 31.4166 23.3595 32.8096 23.2105C33.9414 23.1041 34.8783 22.9976 35.6287 22.8912C36.3749 22.7848 37.0922 22.6273 37.7721 22.4187C37.9462 22.3676 38.1162 22.308 38.2903 22.2441V23.8874C38.2903 24.9431 37.9876 25.8584 37.3824 26.6289V26.6331Z" fill="#DEEDFF"/>
<path d="M63.3138 12.1936C61.8171 11.2315 59.993 10.7505 57.8331 10.7505C56.067 10.7505 54.5911 11.0911 53.4054 11.7722C52.2239 12.4533 51.2455 13.4622 50.4785 14.7947V11.1507H46.3037V39.0002H50.4951V28.43C51.2496 29.7922 52.2156 30.8096 53.3888 31.4823C54.5662 32.1549 56.0172 32.4954 57.746 32.4954C59.9308 32.4954 61.7757 32.0016 63.2847 31.014C64.7938 30.0264 65.9173 28.7109 66.6594 27.0677C67.4015 25.4245 67.7705 23.611 67.7705 21.623C67.7705 19.6349 67.4015 17.7576 66.6594 16.1058C65.9173 14.4584 64.8021 13.1515 63.3055 12.1894L63.3138 12.1936ZM62.7873 25.3181C62.2524 26.3908 61.4979 27.2252 60.5154 27.8212C59.5328 28.4172 58.372 28.7109 57.0329 28.7109C55.6939 28.7109 54.5704 28.4129 53.5795 27.8212C52.5928 27.2252 51.83 26.3951 51.2994 25.3181C50.7646 24.2453 50.4992 22.998 50.4992 21.5846C50.4992 20.1713 50.7604 18.9495 51.2869 17.8895C51.8134 16.8295 52.5721 15.9994 53.5588 15.4077C54.5455 14.8117 55.7021 14.518 57.0288 14.518C58.3554 14.518 59.5328 14.816 60.5195 15.4077C61.5062 16.0037 62.2649 16.8295 62.7914 17.8895C63.3179 18.9495 63.5832 20.1841 63.5832 21.5846C63.5832 22.9852 63.3179 24.2453 62.7831 25.3181H62.7873Z" fill="#DEEDFF"/>
<path d="M86.0537 11.9041C84.5737 11.1379 82.8408 10.7505 80.8674 10.7505C78.724 10.7505 76.8419 11.206 75.2209 12.1213C73.604 13.0365 72.3479 14.3349 71.4565 16.0164C70.5652 17.698 70.1216 19.6605 70.1216 21.9039C70.1216 24.1474 70.5444 26.0247 71.3902 27.6594C72.2359 29.2941 73.4589 30.5627 75.055 31.4652C76.6553 32.3677 78.5582 32.8147 80.7679 32.8147C82.2479 32.8147 83.5912 32.6104 84.7934 32.206C85.9957 31.7973 87.057 31.2268 87.9732 30.4861C88.2427 30.269 88.5039 30.0349 88.7526 29.7922C89.6647 28.9025 89.4284 27.3487 88.3215 26.7399C87.5835 26.3312 86.6839 26.4973 86.0869 27.106C85.9211 27.2763 85.7469 27.4338 85.5604 27.5871C85.0131 28.0341 84.3581 28.3916 83.5912 28.6598C82.8242 28.928 81.9453 29.06 80.9586 29.06C79.5822 29.06 78.3924 28.7961 77.3891 28.2682C76.3858 27.7403 75.623 26.9911 75.0965 26.0162C74.6612 25.2116 74.4083 24.3006 74.3337 23.2917H90.7053V20.4097C90.7053 18.4344 90.299 16.7146 89.4864 15.2544C88.6739 13.7943 87.5255 12.6789 86.0454 11.9127L86.0537 11.9041ZM77.3559 15.28C78.3302 14.7606 79.4703 14.5009 80.7679 14.5009C81.8997 14.5009 82.8947 14.6968 83.7611 15.0927C84.6235 15.4886 85.2909 16.0718 85.7594 16.8466C86.2279 17.6213 86.46 18.5622 86.46 19.669V19.8691H74.3793C74.4871 19.0134 74.7275 18.2386 75.1006 17.5362C75.6272 16.5571 76.3775 15.8036 77.3518 15.2842L77.3559 15.28Z" fill="#DEEDFF"/>
<path d="M110.729 12.2061C109.24 11.2397 107.416 10.7544 105.261 10.7544C103.532 10.7544 102.06 11.0865 100.845 11.7463C99.6306 12.4061 98.6522 13.4321 97.9101 14.8199V4.39014H93.7188V32.4993H97.8728V28.6169C98.3537 29.579 98.9465 30.3708 99.6472 30.9881C100.348 31.6096 101.16 32.0694 102.077 32.3716C102.993 32.6739 104.025 32.8229 105.169 32.8229C107.379 32.8229 109.236 32.3291 110.737 31.3414C112.238 30.3538 113.357 29.0213 114.091 27.3483C114.825 25.6753 115.194 23.8065 115.194 21.7503C115.194 19.6942 114.825 17.8168 114.083 16.1523C113.341 14.4921 112.225 13.1767 110.737 12.2061H110.729ZM110.202 25.6029C109.676 26.7055 108.921 27.5527 107.939 28.1444C106.956 28.7404 105.791 29.0341 104.44 29.0341C103.088 29.0341 101.961 28.7361 100.978 28.1444C99.9954 27.5527 99.2409 26.7013 98.7061 25.6029C98.1713 24.5004 97.906 23.219 97.906 21.7503C97.906 20.2817 98.1671 19.0258 98.6937 17.936C99.2202 16.8462 99.9788 16.0076 100.966 15.4116C101.952 14.8156 103.109 14.5219 104.436 14.5219C105.762 14.5219 106.956 14.8199 107.935 15.4116C108.917 16.0076 109.672 16.8462 110.198 17.936C110.725 19.0258 110.99 20.2944 110.99 21.7503C110.99 23.2062 110.725 24.5046 110.198 25.6029H110.202Z" fill="#DEEDFF"/>
<path d="M133.456 12.1127C131.831 11.206 129.953 10.7505 127.822 10.7505C125.691 10.7505 123.776 11.206 122.159 12.1127C120.542 13.0195 119.294 14.3136 118.424 15.9866C117.553 17.6639 117.118 19.5924 117.118 21.7847C117.118 23.9771 117.553 25.9013 118.424 27.57C119.294 29.2388 120.538 30.5287 122.159 31.4439C123.776 32.3592 125.658 32.8147 127.805 32.8147C129.953 32.8147 131.831 32.3592 133.452 31.4439C135.069 30.5287 136.321 29.2388 137.204 27.57C138.087 25.9013 138.531 23.9728 138.531 21.7847C138.531 19.5966 138.091 17.6639 137.216 15.9866C136.337 14.3136 135.09 13.0195 133.464 12.1127H133.456ZM133.514 25.6799C132.979 26.7697 132.225 27.5998 131.242 28.1745C130.26 28.7492 129.12 29.0345 127.822 29.0345C126.524 29.0345 125.347 28.7492 124.373 28.1745C123.399 27.5998 122.644 26.7697 122.109 25.6799C121.574 24.5901 121.309 23.296 121.309 21.7847C121.309 20.2735 121.574 18.9921 122.109 17.8895C122.644 16.787 123.394 15.9526 124.373 15.3779C125.347 14.8032 126.5 14.518 127.822 14.518C129.145 14.518 130.264 14.8032 131.242 15.3779C132.225 15.9526 132.979 16.7912 133.514 17.8895C134.049 18.9921 134.314 20.2905 134.314 21.7847C134.314 23.2789 134.049 24.5901 133.514 25.6799Z" fill="#DEEDFF"/>
<path d="M160.681 11.1548H155.416L149.993 18.6003L144.595 11.1548H139.33L147.303 21.5675L138.92 32.4996H144.264L149.993 24.5304L155.768 32.4996H161.091L152.688 21.5675L160.681 11.1548Z" fill="#DEEDFF"/>
<path d="M205.849 30.8137H202.321C202.438 30.6562 202.583 30.5029 202.753 30.3582C202.923 30.2092 203.101 30.073 203.287 29.9453C203.474 29.8176 203.69 29.6771 203.934 29.5238C204.494 29.1662 204.95 28.847 205.29 28.5745C205.63 28.3021 205.92 27.97 206.16 27.5826C206.401 27.1952 206.517 26.7482 206.517 26.2374C206.517 25.7265 206.397 25.3008 206.16 24.9135C205.924 24.5303 205.584 24.2281 205.145 24.0195C204.705 23.8066 204.187 23.7002 203.586 23.7002C202.914 23.7002 202.321 23.8322 201.807 24.1004C201.293 24.3686 200.891 24.7347 200.601 25.2029C200.311 25.6712 200.153 26.2033 200.128 26.8078L201.849 27.0079C201.865 26.6674 201.94 26.3736 202.077 26.1139C202.214 25.8585 202.4 25.6584 202.637 25.518C202.873 25.3775 203.155 25.3051 203.474 25.3051C203.727 25.3051 203.942 25.3477 204.129 25.4371C204.316 25.5265 204.461 25.6457 204.56 25.7989C204.66 25.9564 204.709 26.131 204.709 26.3353C204.709 26.5907 204.626 26.8291 204.461 27.0505C204.295 27.2719 204.088 27.4804 203.835 27.672C203.582 27.8636 203.246 28.0977 202.823 28.3659C202.247 28.732 201.77 29.0683 201.401 29.3748C201.032 29.6813 200.713 30.0432 200.448 30.4689C200.186 30.8903 200.054 31.3714 200.054 31.9035V32.5037H205.854C206.306 32.5037 206.674 32.1291 206.674 31.6609C206.674 31.1926 206.31 30.818 205.854 30.818L205.849 30.8137Z" fill="#DEEDFF"/>
<path d="M212.976 29.2558V23.8706H210.804L207.185 29.2345C207.06 29.4175 206.998 29.6346 206.998 29.8517C206.998 30.452 207.471 30.9415 208.059 30.9415H211.202V32.4954H212.98V30.9415H214V29.2515H212.98L212.976 29.2558ZM211.198 29.2558H208.922L211.198 25.8374V29.2558Z" fill="#DEEDFF"/>
<path d="M206.301 15.2628V1.7935C206.301 0.444018 204.904 -0.420161 203.743 0.20988L192.625 6.22933C192.052 6.54009 191.696 7.14885 191.696 7.81295V21.0225C191.696 21.4653 191.244 21.7547 190.858 21.5589L169.566 10.8908C168.405 10.3118 167.058 11.176 167.058 12.4999V26.0373C167.058 26.7227 167.435 27.3442 168.036 27.6465L190.091 38.7446C191.252 39.3278 192.604 38.4594 192.604 37.1354V24.8198C192.604 24.1557 192.964 23.5427 193.537 23.2362L205.373 16.8464C205.945 16.5356 206.306 15.9269 206.306 15.2628H206.301Z" fill="#DEEDFF"/>
</svg>